<svg id="Layer_1" data-name="Layer 1" xmlns="http://www.w3.org/2000/svg" viewBox="0 0 1000 426.26"><defs><style>.cls-1{fill:#002e6d;}.cls-2{fill:#b8d8eb;}.cls-3{fill:#65b2e8;}</style></defs><path class="cls-1" d="M999,210C999,95.62,905.88,2.5,791.47,2.5c-93.12,0-172.09,61.72-198.26,146.36l22-34.6c65.12-79.39,109.38-86.95,176.26-87.37C892.46,26.27,974.61,109,974.61,210S892.46,393.16,791.47,393.16c-57.92,0-79.92-10.59-133.37-52q-8.67-7-15.67-12.85-3.21-2.56-6.22-5.13c-1.65-1.34-3.17-2.62-4.7-4-1.16-.91-2.32-1.89-3.41-2.87-2.14-1.83-4.27-3.59-6.35-5.48-.06-.07-.18-.13-.3-.25-2.2-1.89-4.33-3.84-6.59-5.85s-4.45-4-6.83-6.22c-2-1.85-4.11-3.85-6.29-5.93-22-21-52.12-54.18-118-120.92-34.09-34.58-66-64.17-95.92-87.08-8-6.12-40.86-33.63-65.14-47.65a206.53,206.53,0,0,0-68-29.25c1.82.81,3.87,1.74,6,2.73-2.16-1-4.22-1.93-6-2.74-2-.48-4.08-.91-6.16-1.34a211.34,211.34,0,0,0-40-3.9C94.06,2.5,1,95.62,1,210S94.06,417.56,208.47,417.56c82.26,0,147.82-44,198.22-130.19l-28.33,32.46C314,383,254.65,394,208.47,393.16,107.56,391.3,25.39,311,25.39,210S107.54,26.89,208.47,26.89c56.91,0,99,18.92,142.81,54.33,3.82,3.26,7.67,6.52,11.54,9.83,4.08,3.47,8.11,7.07,12.19,10.67,6.89,6.1,15.77,12.32,22.6,18.66,26,24.09,52.26,49.64,75.86,75.19,47.15,51.17,93.37,104.23,134.9,143,21.35,19.94,41.47,36.1,59.89,46.35C762.23,437.25,835.2,413,835.2,413l-.32-.07C928.53,392.93,999,309.54,999,210ZM339.43,54.87c-14.09-9.22-27.09-17.08-38.69-23.66C312.34,37.79,325.33,45.63,339.43,54.87Zm-70.6-40.51c-2.44-1.19-4.76-2.29-6.91-3.3Q265.16,12.58,268.83,14.36Zm31.38,16.55c-3.85-2.18-7.56-4.22-11.09-6.13C292.65,26.68,296.36,28.74,300.21,30.91Zm-11.15-6.17c-3.54-1.9-6.89-3.66-10.09-5.31Q283.76,21.89,289.06,24.74Zm-10.4-5.47c-3-1.52-5.72-2.9-8.37-4.19C272.94,16.37,275.71,17.76,278.66,19.27ZM794.13,417.56c-.49,0-1,0-1.45,0,1.54,0,3.07,0,4.61-.1C796.22,417.49,795.16,417.56,794.13,417.56Z"/><path class="cls-2" d="M594.13,358.71c-61.32-53.16-68.68-67.93-113.49-116.6-22.83-24.8-44.83-53.61-70.13-79.34-12.93-13.12-26.29-25.8-39.89-37.69-2-1.77-4-3.48-6-5.25-55.13-46.95-109.94-76.5-169.17-76.17,4.27.19,95.2,16.3,157,86.11,1.31,1.49,2.62,2.93,3.9,4.39,11.1,12.44,23.89,27.45,33.46,38.73,10.43,12.38,17.34,21,26.12,32,39.28,49.46,73.62,84.69,90,103.35,25.49,29.15,47.47,51.5,75.42,70.14,48,32.06,110.73,45.43,126,45.43C707.22,423.76,659.36,415.25,594.13,358.71Z"/><path class="cls-3" d="M763,266.59c-31.41-3.85-57.69-7.44-83.12-14.95a243.6,243.6,0,0,1-52.27-22.07c-3-1.71-6.16-3.48-9.27-5.43q-7.59-4.66-15.36-9.7c-43.36-28-89.71-63.85-157.59-121.9-9.45-8.05-19-15.37-28.41-22C355.29,27,292,8.29,284,6.46c7.44,2,64.82,21.62,126.65,75.1,8.48,7.26,17.14,15.31,25.86,24.15,62.81,63.48,124.77,127.46,172.1,161.18,11.22,8,21.65,14.33,31,18.54a.46.46,0,0,1,.3.12c4.82,2.14,10.25,4.64,16.22,7.2,55,23.72,156.31,57.75,254.67-53C910.85,239.75,819.68,273.48,763,266.59Z"/></svg>